<svg version="1.1" id="Layer_1" xmlns="http://www.w3.org/2000/svg" xmlns:xlink="http://www.w3.org/1999/xlink" x="0px" y="0px"
	 width="100%" viewBox="0 0 100 50" enable-background="new 0 0 100 50" xml:space="preserve">
<path fill="#000000" opacity="1.000000" stroke="none" 
	d="
M65.000000,51.000000 
	C43.333336,51.000000 22.166674,51.000000 1.000009,51.000000 
	C1.000006,34.333340 1.000006,17.666679 1.000003,1.000015 
	C34.333321,1.000010 67.666641,1.000010 100.999969,1.000005 
	C100.999985,17.666651 100.999985,34.333302 100.999992,50.999977 
	C89.166664,51.000000 77.333336,51.000000 65.000000,51.000000 
M79.887039,31.585964 
	C80.004532,33.683456 80.122025,35.780952 80.251640,38.094700 
	C82.057121,37.947102 83.463089,37.832165 83.961060,37.791454 
	C83.961060,33.911144 83.221817,30.297047 84.115326,27.145924 
	C85.961189,20.636169 92.316589,25.938519 94.812958,24.121933 
	C96.133682,20.579674 97.075081,18.054798 98.118233,15.257007 
	C98.415192,15.347808 97.864349,15.037721 97.310600,15.032414 
	C92.779015,14.988985 88.237572,15.181769 83.717552,14.947426 
	C79.302780,14.718537 74.967392,16.836643 70.447449,15.160708 
	C69.740692,14.898653 68.239296,16.779747 67.525917,17.339706 
	C63.199310,11.734767 56.507927,17.355211 51.311470,14.694584 
	C51.026741,16.336123 50.863701,17.276083 50.770329,17.814402 
	C46.625912,12.483675 41.022026,16.276449 37.008026,15.009063 
	C37.008026,17.669159 36.922054,19.969172 37.066952,22.254545 
	C37.104355,22.844484 37.866776,23.388456 38.296146,23.953545 
	C38.861401,23.357391 39.773804,22.836733 39.923119,22.150127 
	C40.288162,20.471487 40.300430,18.716133 40.454693,16.991655 
	C40.765198,17.043814 41.075706,17.095970 41.386211,17.148127 
	C41.930981,19.520687 42.475746,21.893246 43.020515,24.265806 
	C43.580009,24.134033 44.139507,24.002262 44.699001,23.870489 
	C44.928711,21.583748 45.158417,19.297007 45.388123,17.010265 
	C45.803528,17.021366 46.218937,17.032467 46.634342,17.043568 
	C46.857559,19.324596 47.080772,21.605625 47.284012,23.682516 
	C52.259602,23.682516 56.926361,23.682516 61.725086,23.682516 
	C61.969978,21.392548 62.206154,19.184072 62.442329,16.975599 
	C62.870720,17.015366 63.299110,17.055134 63.727501,17.094902 
	C63.889210,19.328878 64.050919,21.562857 64.209000,23.746706 
	C67.727921,23.746706 71.074356,23.746706 74.420792,23.746706 
	C74.262695,24.132483 74.104607,24.518259 73.946510,24.904036 
	C75.737465,26.276642 77.528427,27.649246 79.327682,29.028214 
	C79.327682,29.506115 79.327682,30.443806 78.509445,30.965878 
	C77.716148,30.311934 76.935524,29.109261 76.127556,29.090601 
	C69.487740,28.937273 62.842838,29.004045 55.544483,29.004045 
	C56.285877,31.361067 56.826820,33.080822 57.411747,34.940407 
	C52.834141,34.885998 56.422756,30.523714 54.467949,29.269550 
	C52.333084,29.269550 50.261623,29.269550 48.301075,29.269550 
	C48.164055,31.453657 48.044342,33.361923 47.924629,35.270187 
	C47.565895,35.252838 47.207161,35.235489 46.848427,35.218140 
	C46.848427,33.269470 46.848427,31.320803 46.848427,28.266676 
	C41.315353,33.320435 43.334164,23.816326 39.212692,25.281393 
	C39.212692,29.553505 39.212692,33.660427 39.212692,37.767345 
	C39.717796,37.952511 40.222897,38.137676 40.728001,38.322842 
	C41.518333,35.968910 42.308662,33.614983 43.098995,31.261055 
	C43.441608,31.278404 43.784225,31.295755 44.126839,31.313107 
	C44.295406,33.498169 44.463974,35.683235 44.618305,37.683765 
	C51.714619,37.683765 58.802040,37.683765 65.847984,37.683765 
	C66.008865,35.235146 66.147697,33.121998 66.286537,31.008856 
	C66.764587,31.034357 67.242638,31.059858 67.720695,31.085360 
	C67.878563,33.249233 68.036438,35.413105 68.209129,37.780190 
	C71.795837,37.780190 75.205765,37.780190 78.814774,37.780190 
	C78.942436,35.463943 79.059059,33.348026 79.887039,31.585964 
M27.029688,22.885433 
	C28.822586,23.262453 30.615482,23.639471 33.617756,24.270803 
	C31.473740,22.000679 30.285313,20.742350 29.183512,19.575743 
	C30.368156,17.946026 31.344164,16.603331 32.819996,14.573031 
	C30.429972,15.164333 28.757727,15.578053 27.631826,15.856606 
	C26.948717,14.236661 26.256989,12.596278 25.565258,10.955894 
	C24.982855,11.128760 24.400450,11.301626 23.818047,11.474492 
	C23.818047,14.158647 23.818047,16.842800 23.818047,19.526955 
	C23.500568,19.513802 23.183090,19.500647 22.865612,19.487492 
	C22.865612,18.102936 22.865612,16.718378 22.865612,15.457101 
	C18.598173,15.457101 14.497064,15.457101 10.503791,15.457101 
	C9.797681,17.657850 9.073148,19.916021 8.348615,22.174191 
	C7.186852,20.762646 6.818377,19.560452 7.099533,18.536657 
	C7.385102,17.496794 8.311493,16.632914 8.912631,15.756977 
	C7.771237,14.730370 6.775627,13.834885 5.867002,13.017636 
	C1.086164,15.430915 4.733048,19.200796 4.331880,22.243389 
	C4.287920,22.576803 7.857300,23.849852 9.767790,23.890701 
	C15.449525,24.012184 21.139757,23.736235 27.029688,22.885433 
M34.419300,32.076286 
	C34.853222,31.160503 35.287144,30.244720 35.721062,29.328938 
	C35.346035,29.001713 34.971004,28.674488 34.595974,28.347263 
	C33.106674,29.627800 31.617369,30.908337 30.174622,32.148846 
	C28.965767,26.620468 23.953089,29.916529 20.826128,28.839451 
	C19.983604,27.396915 19.183264,26.026604 18.382921,24.656290 
	C18.017271,24.816298 17.651623,24.976307 17.285973,25.136314 
	C17.285973,29.356030 17.285973,33.575748 17.285973,39.101070 
	C21.279118,37.738304 24.614391,36.600056 28.234854,35.364475 
	C28.166620,36.884586 28.055017,39.370918 27.888958,43.070396 
	C29.485315,41.627029 30.980690,40.821022 31.619459,39.575649 
	C32.710060,37.449364 33.263348,35.047482 34.419300,32.076286 
z"/>
<path fill="#93C3D1" opacity="1.000000" stroke="none" 
	d="
M79.327682,31.381498 
	C79.327682,30.443806 79.327682,29.506115 79.327682,29.028214 
	C77.528427,27.649246 75.737465,26.276642 73.946510,24.904036 
	C74.104607,24.518259 74.262695,24.132483 74.420792,23.746706 
	C71.074356,23.746706 67.727921,23.746706 64.209000,23.746706 
	C64.050919,21.562857 63.889210,19.328878 63.727501,17.094902 
	C63.299110,17.055134 62.870720,17.015366 62.442329,16.975599 
	C62.206154,19.184072 61.969978,21.392548 61.725086,23.682516 
	C56.926361,23.682516 52.259602,23.682516 47.284012,23.682516 
	C47.080772,21.605625 46.857559,19.324596 46.634342,17.043568 
	C46.218937,17.032467 45.803528,17.021366 45.388123,17.010265 
	C45.158417,19.297007 44.928711,21.583748 44.699001,23.870489 
	C44.139507,24.002262 43.580009,24.134033 43.020515,24.265806 
	C42.475746,21.893246 41.930981,19.520687 41.386211,17.148127 
	C41.075706,17.095970 40.765198,17.043814 40.454693,16.991655 
	C40.300430,18.716133 40.288162,20.471487 39.923119,22.150127 
	C39.773804,22.836733 38.861401,23.357391 38.296146,23.953545 
	C37.866776,23.388456 37.104355,22.844484 37.066952,22.254545 
	C36.922054,19.969172 37.008026,17.669159 37.008026,15.009063 
	C41.022026,16.276449 46.625912,12.483675 50.770329,17.814402 
	C50.863701,17.276083 51.026741,16.336123 51.311470,14.694584 
	C56.507927,17.355211 63.199310,11.734767 67.525917,17.339706 
	C68.239296,16.779747 69.740692,14.898653 70.447449,15.160708 
	C74.967392,16.836643 79.302780,14.718537 83.717552,14.947426 
	C88.237572,15.181769 92.779015,14.988985 97.310600,15.032414 
	C97.864349,15.037721 98.415192,15.347808 98.118233,15.257007 
	C97.075081,18.054798 96.133682,20.579674 94.812958,24.121933 
	C92.316589,25.938519 85.961189,20.636169 84.115326,27.145924 
	C83.221817,30.297047 83.961060,33.911144 83.961060,37.791454 
	C83.463089,37.832165 82.057121,37.947102 80.251640,38.094700 
	C80.122025,35.780952 80.004532,33.683456 79.572311,31.443378 
	C79.257584,31.300795 79.327682,31.381498 79.327682,31.381498 
z"/>
<path fill="#93C3D1" opacity="1.000000" stroke="none" 
	d="
M79.216629,31.266451 
	C79.059059,33.348026 78.942436,35.463943 78.814774,37.780190 
	C75.205765,37.780190 71.795837,37.780190 68.209129,37.780190 
	C68.036438,35.413105 67.878563,33.249233 67.720695,31.085360 
	C67.242638,31.059858 66.764587,31.034357 66.286537,31.008856 
	C66.147697,33.121998 66.008865,35.235146 65.847984,37.683765 
	C58.802040,37.683765 51.714619,37.683765 44.618305,37.683765 
	C44.463974,35.683235 44.295406,33.498169 44.126839,31.313107 
	C43.784225,31.295755 43.441608,31.278404 43.098995,31.261055 
	C42.308662,33.614983 41.518333,35.968910 40.728001,38.322842 
	C40.222897,38.137676 39.717796,37.952511 39.212692,37.767345 
	C39.212692,33.660427 39.212692,29.553505 39.212692,25.281393 
	C43.334164,23.816326 41.315353,33.320435 46.848427,28.266676 
	C46.848427,31.320803 46.848427,33.269470 46.848427,35.218140 
	C47.207161,35.235489 47.565895,35.252838 47.924629,35.270187 
	C48.044342,33.361923 48.164055,31.453657 48.301075,29.269550 
	C50.261623,29.269550 52.333084,29.269550 54.467949,29.269550 
	C56.422756,30.523714 52.834141,34.885998 57.411747,34.940407 
	C56.826820,33.080822 56.285877,31.361067 55.544483,29.004045 
	C62.842838,29.004045 69.487740,28.937273 76.127556,29.090601 
	C76.935524,29.109261 77.716148,30.311934 78.918564,31.173687 
	C79.327682,31.381498 79.257584,31.300795 79.216629,31.266451 
z"/>
<path fill="#93C3D1" opacity="1.000000" stroke="none" 
	d="
M26.928179,23.250519 
	C21.139757,23.736235 15.449525,24.012184 9.767790,23.890701 
	C7.857300,23.849852 4.287920,22.576803 4.331880,22.243389 
	C4.733048,19.200796 1.086164,15.430915 5.867002,13.017636 
	C6.775627,13.834885 7.771237,14.730370 8.912631,15.756977 
	C8.311493,16.632914 7.385102,17.496794 7.099533,18.536657 
	C6.818377,19.560452 7.186852,20.762646 8.348615,22.174191 
	C9.073148,19.916021 9.797681,17.657850 10.503791,15.457101 
	C14.497064,15.457101 18.598173,15.457101 22.865612,15.457101 
	C22.865612,16.718378 22.865612,18.102936 22.865612,19.487492 
	C23.183090,19.500647 23.500568,19.513802 23.818047,19.526955 
	C23.818047,16.842800 23.818047,14.158647 23.818047,11.474492 
	C24.400450,11.301626 24.982855,11.128760 25.565258,10.955894 
	C26.256989,12.596278 26.948717,14.236661 27.631826,15.856606 
	C28.757727,15.578053 30.429972,15.164333 32.819996,14.573031 
	C31.344164,16.603331 30.368156,17.946026 29.183512,19.575743 
	C30.285313,20.742350 31.473740,22.000679 33.617756,24.270803 
	C30.615482,23.639471 28.822586,23.262453 26.928179,23.250519 
z"/>
<path fill="#92C3D0" opacity="1.000000" stroke="none" 
	d="
M34.230812,32.418823 
	C33.263348,35.047482 32.710060,37.449364 31.619459,39.575649 
	C30.980690,40.821022 29.485315,41.627029 27.888958,43.070396 
	C28.055017,39.370918 28.166620,36.884586 28.234854,35.364475 
	C24.614391,36.600056 21.279118,37.738304 17.285973,39.101070 
	C17.285973,33.575748 17.285973,29.356030 17.285973,25.136314 
	C17.651623,24.976307 18.017271,24.816298 18.382921,24.656290 
	C19.183264,26.026604 19.983604,27.396915 20.826128,28.839451 
	C23.953089,29.916529 28.965767,26.620468 30.174622,32.148846 
	C31.617369,30.908337 33.106674,29.627800 34.595974,28.347263 
	C34.971004,28.674488 35.346035,29.001713 35.721062,29.328938 
	C35.287144,30.244720 34.853222,31.160503 34.230812,32.418823 
z"/>
</svg>